<?xml version="1.0" encoding="utf-8"?>
<!-- Generator: Adobe Illustrator 18.1.1, SVG Export Plug-In . SVG Version: 6.00 Build 0)  -->
<svg version="1.1" id="Layer_1" xmlns="http://www.w3.org/2000/svg" xmlns:xlink="http://www.w3.org/1999/xlink" x="0px" y="0px"
	 viewBox="0 0 130 50" enable-background="new 0 0 130 50" xml:space="preserve">
<rect x="0" y="0" fill="#ED1F24" width="130" height="50"/>
<g>
	<path fill="#040404" d="M79.8,45.6c-10.7,0-21.5,0-32.2,0c-0.1-0.3,0.1-0.4,0.3-0.4c1.4-0.5,2.7-1,4.2-1.2c0.4,0,0.7-0.2,1.1-0.4
		c0.1-0.1,0.2-0.2,0.2-0.4c-0.1-0.4-0.1-0.8-0.2-1.1c-0.1-0.3-0.3-0.4-0.6-0.1c-0.2,0.2-0.6,0.2-0.8,0.2c-0.3,0-0.3-0.2-0.4-0.4
		c-0.1,0-0.1,0.1-0.1,0.1c0.1,0.3,0.3,0.5-0.1,0.7c-0.4,0.1-0.7,0-0.9-0.4c-0.1-0.3-0.1-0.7,0-1c0.2-0.5,0-0.7-0.5-0.9
		c-0.1,0-0.3,0-0.4-0.1c-0.8,0-1.3-0.5-1.3-1.3c0-0.3-0.2-0.5-0.3-0.7c-0.1-0.2-0.2-0.3,0-0.5c0.2-0.1,0.3,0,0.4,0.1
		c0.1,0,0.1,0.1,0.2,0.2c0.1,0.1,0.3,0.1,0.4,0c0.1-0.2,0.1-0.3,0-0.4c-0.3-0.3-0.5-0.7-0.8-1c-0.4-0.5,0-1.9,0.5-2.3
		c0.1-0.1,0.2-0.1,0.3-0.1c0.1,0.1,0.1,0.2,0.1,0.3c-0.2,0.7,0.2,1.1,0.7,1.4c0.3,0.2,0.5,0.2,0.7,0c0.2-0.2,0.4-0.4,0.7-0.5
		c0.3-0.2,0.4-0.4,0.3-0.7c-0.2-0.5-0.5-0.9-0.9-1.2c-0.2-0.1-0.4-0.1-0.6,0c-0.3,0.1-0.6,0.3-1,0.4c-0.9,0.4-1.7,0.1-2.5-0.4
		c-0.4-0.3-0.7-1-0.5-1.4c0.1-0.2,0.1-0.3,0.3-0.3c0.2,0,0.2,0.2,0.3,0.3c0.4,1,1,1.1,1.8,0.5c0.7-0.5,0.9-1.2,0.7-2
		c-0.2-0.7,0-1.3,0.1-2c0.1-0.4,0-0.7-0.4-0.8c-0.2-0.1-0.4-0.2-0.4-0.5c-0.1-0.5,0.1-0.7,0.5-0.5c0.2,0.1,0.4,0,0.6-0.2
		c0.1-0.2,0.1-0.4,0-0.5c-0.2-0.3-0.3-0.5-0.4-0.9c0-0.2-0.1-0.3-0.3-0.3c-0.5-0.1-0.9-0.4-1.4-0.4c-0.2,0-0.5,0-0.5-0.3
		c0-0.3,0.2-0.4,0.5-0.4c1.5-0.2,2.8-1,4.1-1.7c0.6-0.3,1-0.8,1.2-1.5c0.2-0.5,0.4-1,0.8-1.4c0.2-0.2,0.2-0.4,0-0.7
		c-0.4-1-0.9-1.9-0.8-3.1c0-0.4,0.1-0.7,0.3-1c0.3-0.4,0.3-0.8,0.3-1.2c0-0.5,0-0.9,0.1-1.4c0-0.1,0-0.2,0.1-0.3
		c0,0,1.8-2.9,1.8-2.9c0.8-0.5,1.4-1.4,2.2-1.9c1.1-0.6,2.1-1.3,3.4-1.5C61,5.2,61.4,5,61.8,4.9c1.1-0.3,2.1-0.4,3.2-0.4
		c0.6,0,1.2-0.2,1.8-0.1c0.7,0.1,1.4,0.2,2.1,0.4c0.5,0.1,1,0.2,1.5,0.2c0.5,0,1,0.2,1.4,0.5c1.1,0.8,2.2,1.4,3.6,1.6
		c1,0.1,2,0.5,2.9,1c1.3,0.7,2.5,1.4,3.6,2.4c0.5,0.5,0.9,1.1,1.1,1.9c0.1,0.4,0.3,0.7,0.6,0.9c0.6,0.5,1,1.1,1.4,1.7
		c0.2,0.3,0.3,0.5,0.3,0.8c0,0.6,0.2,1.1,0.4,1.7c0.5,1.1,0.4,2.3,0.1,3.4c-0.1,0.3-0.1,0.5,0.2,0.7c0.2,0.1,0.1,0.3,0,0.4
		c-0.2,0.1-0.3,0.2-0.5,0.2c-0.3,0.1-0.3,0.2-0.2,0.5c0.1,0.2,0.3,0.3,0.2,0.5c-0.1,0.2-0.3,0.1-0.5,0.1c-0.1,0-0.2-0.1-0.3,0.1
		c0,0.1,0,0.3,0.1,0.3c0.3,0.1,0.4,0.4,0.4,0.6c0.1,0.4,0.4,0.8,0.9,0.8c0.2,0,0.4,0.1,0.5,0.3c0.2,0.4,0.5,0.6,1,0.6
		c0.7,0.1,0.8,0.3,0.6,1c0,0.1,0,0.1,0,0.2c0.2,0.5,0.2,0.5-0.4,0.5c-0.3,0-0.5,0-0.5,0.4c0,0.1,0,0.2-0.1,0.2
		c-0.6,0.3-0.3,0.8-0.3,1.3c0,1.6,0.5,3.1,0,4.7c-0.2,0.7-0.4,1.3-0.9,1.8C86.1,36.5,86,36.7,86,37c0,0.1,0,0.1,0,0.2
		c-0.3,0.7-0.4,1.4-0.1,2.1c0.1,0.4-0.1,0.8-0.4,1C85.1,40.5,85,40.7,85,41c-0.1,0.5-0.2,1.1-0.4,1.6c-0.2,0.6-0.7,0.9-1.3,1.1
		c-0.3,0.1-0.5,0.1-0.7-0.2c-0.2-0.3,0-0.5,0.2-0.7c0.1-0.1,0.3-0.2,0.2-0.5c-0.4,0.4-1,0.7-1.4,1.1c-0.4,0.4-0.9,0.7-1.4,0.8
		c-0.4,0.1-0.5,0.2-0.4,0.6C80,45.1,80,45.4,79.8,45.6z"/>
	<path fill="#FCFBFB" d="M70.9,37.8c-0.1,0.4-0.1,0.6-0.5,0.4c-0.3-0.1-0.5,0.3-0.8,0.4c-0.3,0.1-0.6,0.4-1,0.4
		c-0.2,0-0.2,0.1-0.3,0.2c-0.1,0.2-0.2,0.4-0.4,0.1c-0.1-0.1-0.2-0.1-0.3,0.1c-0.2,0.2-0.4,0.4-0.6,0.5c-0.2,0.2-0.3,0.2-0.5,0.1
		c-0.6-0.1-1.3,0-1.8-0.3c-0.5-0.2-0.9-0.1-1.3-0.3c-0.3-0.1-0.5-0.2-0.8-0.3c-0.2,0-0.4-0.4-0.6-0.6c-0.4-0.3-0.6-0.7-0.7-1.1
		c-0.1-0.3-0.2-0.3-0.5-0.4c-0.2-0.1-0.3-0.1-0.4,0.2c0,0.1,0,0.2-0.1,0.2c-0.1,0.3-0.4,0.5-0.7,0.4c-0.3-0.1-0.4-0.3-0.4-0.6
		c0-0.2-0.1-0.5,0.2-0.7c0.1-0.1,0.1-0.3,0-0.4c-0.3-0.2-0.4-0.7-0.8-0.9c-0.4-0.2-0.2-0.7-0.4-1c-0.1-0.2,0.1-0.6-0.4-0.7
		c-0.2,0,0-0.2,0-0.3c0.2-0.5,0-1.3-0.6-1.5c-0.2-0.1-0.2-0.2-0.2-0.3c-0.2-1.4-0.7-2.7-1.2-4c-0.5-1.3-0.4-2.5-0.2-3.8
		c0.2-1,0.6-2,0.7-3.1c0-0.7,0.1-1.3,0.1-2c0-0.6-0.3-0.9-0.8-1.1c0.6-0.5,0.9-1.1,1.3-1.8c0.4-0.7,1.1-0.9,1.7-1.3
		c2-1,4.1-1.2,6.3-1.2c2.3,0,4.6,0.3,6.9,1c1,0.3,2,0.7,3,1.2c0.3,0.2,0.6,0.3,0.9,0.4c0.7,0.3,1.2,0.7,1.4,1.5
		c0.2,0.8,0.5,1.5,0.8,2.3c0.1,0.3,0.2,0.6-0.1,0.9c-0.3,0.2-0.8,0.1-0.9-0.3c-0.1-0.4-0.4-0.6-0.6-0.8c-0.6-0.4-1.1-0.7-1.9-0.7
		c-0.9,0-1.8,0.1-2.7,0.2c-0.8,0.1-1.6,0-2.4,0.2c-0.6,0.2-1,0.7-1,1.3c0,1,0,1,1,1.2c0.5,0.1,0.9,0.2,1.3-0.1
		c0.2-0.1,0.3,0,0.5,0.1c0.2,0.1,0.3,0.3,0.5,0.4c0.5,0.3,0.9,0.2,1.2-0.2c0.1-0.1,0.1-0.4,0.3-0.3c0.2,0.1,0.3,0.2,0.5,0.4
		c0.4,0.5,0.7,1.2,1.5,1.2c0.4,0,0.6,0.3,0.9,0.4c0.1,0.1,0.5,0.5,0.5-0.1c0-0.2,0.5-0.1,0.7,0.1c0.2,0.2,0.3,1.3,0.1,1.4
		c-0.3,0.2-0.4,0.6-0.6,0.9c-0.2,0.4-0.6,0.5-0.8,0.9c0,0.1-0.1,0.1-0.2,0c-0.1,0-0.3-0.1-0.3,0c-0.1,0.4-0.6,0.5-0.7,0.9
		c-0.1,0.3-0.6,0.5-0.8,0.8c-0.4,0.5-0.6,1.1-0.6,1.7c0,0.3,0.2,0.5,0.6,0.4c0.3,0,0.5-0.1,0.8-0.2c-0.3,0.3-0.5,0.7-0.8,1
		c-0.1,0.2-0.3,0.3-0.4,0.4c-0.2,0.3-0.4,0.2-0.6,0c-0.3-0.4-0.7-0.7-1.2-0.7c0,0-0.1,0-0.1,0c-0.5-0.6-1.3-0.5-1.9-0.7
		c-0.6-0.2-0.7-0.8-1.1-1.1c-0.2-0.2,0.2-0.5,0.5-0.4c0.5,0.2,0.8,0,1.1-0.3c0.3-0.2,0.3-0.5,0.1-0.8c-0.4-0.4-0.8-1-1.5-0.9
		c-0.2,0-0.4-0.1-0.6-0.1c-0.5-0.2-0.9-0.3-1.3,0.3c-0.4,0.5-1,0.3-1.5,0.1c-0.4-0.1-0.7-0.3-1.2-0.2c-0.3,0-0.5,0.1-0.5,0.4
		c0,0.3,0.2,0.5,0.5,0.5c0.3,0.1,0.6,0.2,0.9-0.1c0.2-0.1,0.4-0.1,0.5,0.1c0.4,0.5,0.9,0.5,1.4,0.1c0.1-0.1,0.2-0.2,0.4-0.1
		c0.2,0.1,0.1,0.2,0.1,0.3c-0.2,0.3,0.2,0.6,0.2,0.9c0,0.1,0.1,0.3,0,0.4c-0.4,0.5-0.4,1-0.1,1.5c0.3,0.5,0.3,0.4-0.3,0.6
		c-1.2,0.3-2.5,0.1-3.5,0.9c-0.4,0.3-0.7,0-0.8-0.4c0-0.1,0-0.2-0.1-0.3c0-0.1,0.1-0.4-0.1-0.4c-0.2,0-0.3,0.2-0.3,0.3
		c-0.1,0.2-0.1,0.4-0.1,0.6c0.1,0.3,0,0.5-0.2,0.7c-0.2,0.2-0.2,0.4,0.1,0.4c0.3,0.1,0.6,0.2,0.9,0c0.9-0.6,2-0.4,3-0.4
		c0.4,0,0.9,0,1.3,0c0.3,0,0.8-0.1,0.8,0.5c0,0.5-0.3,0.7-0.8,0.8c-0.8,0.1-1.6,0.1-2.4,0.2c-0.3,0-0.6,0.1-0.8,0.3
		c-0.2,0.1-0.3,0.4-0.1,0.5c0.4,0.2,0.8,0.5,1.3,0.5c1.1,0,2.2,0.1,3.2,0.3c0.3,0.1,0.5,0.2,0.7,0.4c0.1,0.1,0.2,0.1,0.4,0.1
		c0.6,0.1,0.7,0.3,0.4,0.8c-0.1,0.2-0.1,0.3,0,0.4C70.7,38.2,70.7,38,70.9,37.8z"/>
	<path fill="#FCFBFB" d="M64,9.2C64,9.1,64.1,9,64.2,9c0.7-0.2,0.5-0.7,0.3-1.1c0-0.1-0.1-0.3,0-0.4c0.2-0.1,0.2,0.1,0.3,0.2
		c0.6,0.5,0.6,0.5,1.3,0.1c0.1-0.1,0.2-0.2,0.4-0.1c0.1,0.1,0,0.2-0.1,0.3c-0.1,0.1-0.1,0.2-0.2,0.2c-0.3,0.2-0.4,0.4,0,0.7
		c0.2,0.1,0.3,0.3,0.4,0.6C65.7,9.4,64.9,9,64,9.3C64,9.3,64,9.2,64,9.2z"/>
	<path fill="#FCFBFB" d="M74,20.6c-0.2-0.1-0.8,0.2-0.9-0.4c0-0.3,0.5-0.2,0.7-0.3c0.3-0.2,0.6-0.2,0.9-0.1c0.4,0.1,0.4,0.3,0.2,0.5
		C74.7,20.4,74.5,20.7,74,20.6z"/>
	<path fill="#FCFBFB" d="M82.3,42.1c-0.1,0.3-0.2,0.6-0.6,0.6c-0.1,0-0.2,0-0.3-0.1c0-0.1,0-0.2,0.1-0.3
		C81.8,42.2,82.1,42.2,82.3,42.1z"/>
	<path fill="#040404" d="M87.5,28.6c0-0.1,0.1-0.1,0.1-0.1c0.1,0,0.1,0.1,0.1,0.2c0,0-0.1,0.1-0.1,0.1
		C87.5,28.7,87.5,28.7,87.5,28.6z"/>
	<path fill="#040404" d="M47.5,37.5C47.5,37.5,47.6,37.5,47.5,37.5C47.6,37.6,47.5,37.6,47.5,37.5C47.5,37.6,47.5,37.5,47.5,37.5z"
		/>
	<path fill="#040404" d="M58.4,19.2c1.3-0.2,2.6,0.1,3.9,0c0.5-0.1,1,0,1.6,0.1c0.6,0,1.4,1.5,1.1,2c0,0,0,0.1-0.1,0.1
		c-0.3,0.4-1.6,0.7-2,0.4c-0.6-0.3-0.8-0.3-1.1,0.3c-0.3,0.5-1.1,0.6-1.5,0.1c-0.3-0.4-0.5-0.1-0.6,0.1c-0.2,0.6-0.6,0.7-1.2,0.8
		c-0.4,0-0.6-0.2-0.5-0.5c0.1-0.6,0.5-1,1-1.3c0.3-0.2,0.6-0.3,0.9-0.5c0.1-0.1,0.2-0.2,0.1-0.3c-0.1-0.2-0.2-0.1-0.3-0.1
		c-0.3,0-0.6,0.1-0.9,0.1c-0.1,0-0.3,0-0.3,0.1C58.4,21,58,20.8,57.8,21c0,0-0.1,0-0.2,0c-0.3-0.2-0.3-1.1,0-1.3
		C57.9,19.5,58,19,58.4,19.2z"/>
	<path fill="#040404" d="M62.2,32.2c0,0.3-0.1,0.6-0.5,0.7c-0.3,0.1-0.4,0.2-0.2,0.5c0.2,0.3-0.3,1.7-0.5,1.9c-0.1,0.1-0.2,0-0.2,0
		c-0.1-0.2-0.4-0.2-0.4-0.5c0.1-0.9,0.1-1.7,0.7-2.5c0.2-0.3,0.6-0.4,1-0.4C62.2,31.9,62.1,32.1,62.2,32.2z"/>
</g>
<text transform="matrix(1 0 0 1 4.1647 34.1142)" font-family="'Impact'" font-size="25.1857">CON</text>
<text transform="matrix(1 0 0 1 88.4207 34.114)" font-family="'Impact'" font-size="25.1857">TRA</text>
</svg>
